<?xml version="1.0" encoding="UTF-8" standalone="no"?>
        <svg 
    viewBox="3.4423828125 -86.865234375 447.4365234375 57.12890625"
    width="443.994140625"
    height="143.994140625"
   xmlns="http://www.w3.org/2000/svg"
   xmlns:svg="http://www.w3.org/2000/svg">
   <path d="M15.75-30.18L17.29-30.91Q25.71-28.71 30.10-25.56Q34.50-22.41 35.78-19.01Q37.06-15.60 36.00-12.74Q34.94-9.89 32.34-8.28Q29.74-6.67 26.40-7.03Q23.07-7.40 19.92-10.47L19.92-10.47Q20.29-15.67 18.97-20.98Q17.65-26.29 15.75-30.18L15.75-30.18ZM120.92-10.03L120.92-125.98L145.97-123.63Q145.75-121.95 144.47-120.89Q143.19-119.82 140.41-119.38L140.41-119.38L140.41-8.72Q140.41-1.98 138.79 2.78Q137.18 7.54 132.02 10.33Q126.86 13.11 116.09 14.14L116.09 14.14Q115.80 9.23 115.06 5.79Q114.33 2.34 112.50 0L112.50 0Q110.67-2.27 107.96-3.85Q105.25-5.42 99.61-6.45L99.61-6.45L99.61-8.42Q99.61-8.42 101.92-8.28Q104.22-8.13 107.48-7.95Q110.74-7.76 113.71-7.62Q116.67-7.47 117.92-7.47L117.92-7.47Q120.92-7.47 120.92-10.03L120.92-10.03ZM34.79-129.13L34.79-129.13L46.51-118.36L72.73-118.36L80.71-125.98L94.92-114.48L94.92-116.09L118.21-113.96Q117.99-112.57 116.97-111.55Q115.94-110.52 113.23-110.08L113.23-110.08L113.23-27.76Q113.23-27.03 110.96-25.82Q108.69-24.61 105.29-23.62Q101.88-22.63 98.36-22.63L98.36-22.63L94.92-22.63L94.92-114.18Q93.46-112.43 89.72-111.77L89.72-111.77Q88.92-95.65 87.34-87.74Q85.77-79.83 81.59-76.68L81.59-76.68Q79.10-74.85 75.95-74.16Q72.80-73.46 69.29-73.32L69.29-73.32Q69.29-75.81 68.88-78.11Q68.48-80.42 67.53-81.88L67.53-81.88Q65.33-85.25 60.13-86.87L60.13-86.87L60.13-88.77Q62.40-88.55 64.97-88.44Q67.53-88.33 68.99-88.33L68.99-88.33Q70.24-88.33 70.83-89.28L70.83-89.28Q72.07-90.82 72.88-96.64Q73.68-102.47 74.12-114.18L74.12-114.18L68.55-114.18Q67.75-104.15 63.98-95.21Q60.21-86.28 49.95-80.13L49.95-80.13L64.67-77.27Q64.23-75.81 62.55-74.93Q60.86-74.05 57.28-73.97L57.28-73.97Q69.51-72.95 76.61-70.13Q83.72-67.31 86.68-63.61Q89.65-59.91 89.54-56.32Q89.43-52.73 87.12-50.17Q84.81-47.61 81.30-47.02Q77.78-46.44 74.12-48.93L74.12-48.93L73.97-49.22Q73.32-47.53 70.53-47.53L70.53-47.53L56.69-47.53L56.69-37.06L63.87-37.06L71.85-46.95Q71.85-46.95 74.38-45.04Q76.90-43.14 80.38-40.43Q83.86-37.72 86.72-35.23L86.72-35.23Q86.06-32.89 82.62-32.89L82.62-32.89L56.69-32.89L56.69-7.62L58.96-7.76Q60.64-12.89 62.18-19.52Q63.72-26.15 64.67-31.35L64.67-31.35L85.47-24.17Q84.96-22.92 83.57-22.16Q82.18-21.39 79.83-21.61L79.83-21.61Q76.54-18.68 71.92-15.01Q67.31-11.35 62.55-8.13L62.55-8.13L91.63-10.18L91.77-8.13Q79.76-4.25 61.93 0.55Q44.09 5.35 18.31 11.43L18.31 11.43Q16.70 14.14 13.77 14.87L13.77 14.87L6.30-4.98Q11.50-5.05 19.78-5.46Q28.05-5.86 38.38-6.45L38.38-6.45L38.38-32.89L9.30-32.89L8.13-37.06L38.38-37.06L38.38-47.53L26.07-47.53L25.49-49.51Q20.58-46.66 15.31-44.31Q10.03-41.97 4.61-40.06L4.61-40.06L3.74-41.24Q10.99-46.80 17.47-54.09Q23.95-61.38 29.00-68.88Q34.06-76.39 36.91-82.62L36.91-82.62L47.97-80.57L47.09-81.45Q48.19-83.28 49.04-85.07Q49.88-86.87 50.54-88.77L50.54-88.77Q48.63-86.13 44.97-85.51Q41.31-84.89 37.50-88.04L37.50-88.04L37.21-91.63Q33.84-87.96 28.97-82.91Q24.10-77.86 17.58-71.70L17.58-71.70Q16.85-68.48 14.43-67.53L14.43-67.53L3.44-84.16L10.33-86.13L10.33-123.12L26.51-118.80Q29.15-121.73 31.35-124.55Q33.54-127.37 34.79-129.13ZM73.17-51.12L73.17-51.12Q70.97-56.10 66.58-62.00Q62.18-67.90 56.25-72.73L56.25-72.73Q51.20-67.46 44.35-62.04Q37.50-56.62 29.37-51.78L29.37-51.78L52.66-51.78L60.28-61.38Q60.28-61.38 62.40-59.77Q64.53-58.15 67.53-55.81Q70.53-53.47 73.17-51.12ZM30.62-107.67L32.08-108.47Q42.77-106.42 47.24-102.36Q51.71-98.29 52.08-94.34L52.08-94.34Q53.03-99.10 53.32-104.04Q53.61-108.98 53.69-114.18L53.69-114.18L50.10-114.18Q48.71-112.94 45.63-114.18L45.63-114.18Q42.70-113.23 37.61-112.32Q32.52-111.40 27.03-110.67L27.03-110.67L27.03-91.48L36.47-94.78Q35.52-98.36 33.95-101.81Q32.37-105.25 30.62-107.67L30.62-107.67ZM271.22-34.94L271.22-34.94L293.70-19.34Q291.72-17.14 286.52-18.31L286.52-18.31Q270.41-6.52 254.11 0.26Q237.82 7.03 220.39 10.11Q202.95 13.18 183.33 13.92L183.33 13.92L182.89 11.87Q200.32 7.91 216.06 2.20Q231.81-3.52 245.62-12.45Q259.42-21.39 271.22-34.94ZM262.06-57.13L262.06-57.13L281.25-42.77Q280.44-41.75 279.09-41.42Q277.73-41.09 275.39-41.82L275.39-41.82Q266.46-35.60 253.64-30.36Q240.82-25.12 225.55-21.53Q210.28-17.94 194.09-16.63L194.09-16.63L193.36-18.60Q207.28-22.71 220.53-28.89Q233.79-35.08 244.59-42.37Q255.40-49.66 262.06-57.13ZM157.03-75L155.86-79.17L241.19-79.17Q239.06-80.64 236.10-82.32Q233.13-84.01 229.61-85.99L229.61-85.99Q218.26-83.72 205.66-82.40Q193.07-81.08 181.05-81.01L181.05-81.01L180.62-83.13Q189.26-84.81 198.12-87.41Q206.98-90.01 215.11-93.16L215.11-93.16Q204.13-98.29 191.24-102.91L191.24-102.91L191.67-104.88Q205.30-105.18 215.52-104.08Q225.73-102.98 232.76-100.93L232.76-100.93Q234.96-102.10 236.94-103.20Q238.92-104.30 240.75-105.47L240.75-105.47L165.01-105.47L163.77-109.64L213.72-109.64L213.72-128.10L240.31-126.12Q240.09-124.66 239.14-123.67Q238.18-122.68 235.47-122.24L235.47-122.24L235.47-109.64L256.05-109.64L267.33-123.63Q267.33-123.63 269.42-122.09Q271.51-120.56 274.73-118.14Q277.95-115.72 281.51-113.01Q285.06-110.30 287.99-107.89L287.99-107.89Q287.33-105.47 283.67-105.47L283.67-105.47L252.91-105.47L267.63-96.31Q266.67-95.07 264.40-94.45Q262.13-93.82 258.47-94.48L258.47-94.48Q256.79-93.68 254.85-92.91Q252.91-92.14 250.78-91.48L250.78-91.48Q254.15-87.82 253.82-84.41Q253.49-81.01 250.78-79.17L250.78-79.17L264.18-79.17L275.68-93.31Q275.68-93.31 277.77-91.77Q279.86-90.23 283.12-87.78Q286.38-85.33 289.97-82.58Q293.55-79.83 296.56-77.42L296.56-77.42Q296.19-76.17 294.98-75.59Q293.77-75 292.24-75L292.24-75L251.07-75L269.68-60.13Q268.95-59.25 267.66-58.92Q266.38-58.59 263.96-59.40L263.96-59.40Q256.13-55.52 245.32-52.29Q234.52-49.07 222.25-46.84Q209.99-44.60 197.68-43.80L197.68-43.80L196.80-45.78Q206.98-49.15 217.35-54.02Q227.71-58.89 236.46-64.34Q245.21-69.80 250.78-75L250.78-75L196.22-75Q195.85-61.01 194.53-48.27Q193.21-35.52 189.22-24.24Q185.23-12.96 177.10-3.30Q168.97 6.37 155.13 14.28L155.13 14.28L153.59 12.30Q161.35 2.93 165.56-7.25Q169.78-17.43 171.50-28.38Q173.22-39.33 173.55-50.98Q173.88-62.62 173.88-75L173.88-75L157.03-75ZM416.09-33.03L417.48-33.76Q429.13-30.91 435.75-26.37Q442.38-21.83 444.95-16.74Q447.51-11.65 446.89-7.14Q446.26-2.64 443.44 0.18Q440.63 3.00 436.49 3.11Q432.35 3.22 427.95-0.59L427.95-0.59Q427.73-9.16 424.33-17.87Q420.92-26.59 416.09-33.03L416.09-33.03ZM361.38-32.52L361.38-32.52L363.28-32.37Q367.38-20.73 366.94-12.30Q366.50-3.88 362.55 0.59L362.55 0.59Q360.64 2.71 357.28 3.08Q353.91 3.44 350.68 1.98Q347.46 0.51 346.07-2.86L346.07-2.86Q344.24-7.32 346.07-11.10Q347.90-14.87 351.78-17.29L351.78-17.29Q353.61-18.68 355.88-21.20Q358.15-23.73 359.80-26.73Q361.45-29.74 361.38-32.52ZM328.78-128.39L328.78-128.39L352.37-114.62Q351.78-113.45 350.50-112.83Q349.22-112.21 346.51-112.65L346.51-112.65Q338.96-104.88 327.80-96.28Q316.63-87.67 304.03-81.59L304.03-81.59L302.86-82.98Q308.20-89.50 313.26-97.71Q318.31-105.91 322.38-114.04Q326.44-122.17 328.78-128.39ZM329.52-96.31L329.52-96.31L353.10-85.03L353.10-100.63L373.68-92.87L382.03-92.87L382.76-104.22L349.66-104.22L348.49-108.47L383.13-108.47L383.86-126.93L411.04-124.22Q410.52-120.34 405.18-119.38L405.18-119.38L402.91-108.47L415.36-108.47L425.98-121.66Q425.98-121.66 427.92-120.19Q429.86-118.73 432.90-116.46Q435.94-114.18 439.27-111.58Q442.60-108.98 445.39-106.64L445.39-106.64Q444.73-104.22 440.99-104.22L440.99-104.22L402.03-104.22L399.46-92.87L419.53-92.87L428.54-103.05L445.83-90.31Q445.09-89.28 443.88-88.59Q442.68-87.89 440.11-87.45L440.11-87.45L440.11-59.40Q440.11-59.18 438.68-58.41Q437.26-57.64 434.55-56.98L434.55-56.98L447.44-47.53Q446.78-45.12 443.12-45.12L443.12-45.12L347.68-45.12L346.51-49.37L418.36-49.37L423.93-55.81L419.97-55.81L419.97-59.55L372.14-59.55L372.14-57.28Q372.14-56.32 368.01-54.71Q363.87-53.10 356.54-53.10L356.54-53.10L353.10-53.10L353.10-81.45Q352.51-81.23 351.75-81.19Q350.98-81.15 349.95-81.15L349.95-81.15Q347.83-77.78 345.26-74.19Q342.70-70.61 339.92-66.87L339.92-66.87L346.66-64.38Q346.22-63.35 345.19-62.59Q344.17-61.82 341.97-61.52L341.97-61.52L341.97 7.18Q341.89 8.20 339.51 9.89Q337.13 11.57 333.25 12.93Q329.37 14.28 324.90 14.28L324.90 14.28L321.02 14.28L321.02-46.22Q317.07-42.70 312.82-39.40Q308.57-36.11 304.03-33.18L304.03-33.18L302.86-34.35Q307.40-41.02 311.54-49.11Q315.67-57.20 319.19-65.63Q322.71-74.05 325.34-81.96Q327.98-89.87 329.52-96.31ZM372.14-88.62L372.14-63.72L378.59-63.72L378.59-88.62L372.14-88.62ZM413.53-63.72L419.97-63.72L419.97-88.62L413.53-88.62L413.53-63.72ZM399.46-88.62L393.02-88.62L393.02-63.72L399.46-63.72L399.46-88.62ZM380.27-43.65L381.30-44.53Q392.50-44.82 399.21-42.52Q405.91-40.21 408.91-36.62Q411.91-33.03 411.91-29.22Q411.91-25.42 409.64-22.60Q407.37-19.78 403.53-19.01Q399.68-18.24 395.07-20.87L395.07-20.87Q394.41-23.29 393.27-25.93Q392.14-28.56 390.60-31.05L390.60-31.05L389.58-30.76L389.58-7.47Q389.58-6.30 390.16-5.79Q390.75-5.27 392.87-5.27L392.87-5.27L400.34-5.27Q402.25-5.27 403.93-5.27Q405.62-5.27 406.64-5.27L406.64-5.27Q408.98-5.49 410.08-6.74L410.08-6.74Q411.11-7.98 412.72-11.35Q414.33-14.72 416.09-19.34L416.09-19.34L417.77-19.34L418.21-6.30Q421.66-4.83 422.72-3.11Q423.78-1.39 423.78 1.17L423.78 1.17Q423.78 6.74 417.99 9.38Q412.21 12.01 397.92 12.01L397.92 12.01L387.16 12.01Q380.13 12.01 376.61 10.66Q373.10 9.30 371.96 6.01Q370.83 2.71 370.83-3.15L370.83-3.15L370.83-36.33L388.04-34.94Q386.28-37.43 384.27-39.70Q382.25-41.97 380.27-43.65L380.27-43.65Z"/>
    </svg>
        