<svg width="288" height="288" version="1.1" xmlns="http://www.w3.org/2000/svg" xmlns:xlink="http://www.w3.org/1999/xlink"><path d="M176.83 37.42L176.83 37.42Q176.83 39.72 173.95 45.19L173.95 45.19L173.09 47.50Q172.22 50.38 168.48 71.69L168.48 71.69Q165.02 92.43 153.22 101.93L153.22 101.93L148.32 101.64Q146.02 97.90 134.78 85.23L134.78 85.23Q133.63 83.79 132.48 82.63L132.48 82.63L132.48 81.48L145.73 84.94Q148.32 85.23 150.05 84.36L150.05 84.36Q157.54 80.91 159.26 58.44L159.26 58.44Q160.13 48.07 158.69 43.18L158.69 43.18L156.67 42.31Q145.73 44.62 134.50 48.36L134.50 48.36Q139.97 53.26 140.83 56.14L140.83 56.14Q128.16 78.89 120.96 86.38L120.96 86.38Q114.05 93.58 106.27 97.03L106.27 97.03L105.70 94.73Q121.25 75.72 125.28 65.93L125.28 65.93Q128.45 58.15 128.74 50.38L128.74 50.38L119.52 52.39Q118.37 52.39 116.93 51.82L116.93 51.82Q110.59 49.51 110.30 46.92L110.30 46.92Q112.90 45.48 125.86 43.75L125.86 43.75Q128.16 43.47 129.89 42.89L129.89 42.89Q150.91 37.71 159.26 31.66L159.26 31.66Q164.45 31.66 176.83 37.42ZM230.69 255.72L230.69 255.72Q226.08 255.43 220.61 247.37L220.61 247.37Q218.30 244.20 217.15 243.05L217.15 243.05Q212.54 237.87 196.42 226.92L196.42 226.92Q192.96 224.33 190.37 222.31L190.37 222.31L190.08 220.87Q191.81 220.01 205.92 222.31L205.92 222.31Q221.47 224.62 223.20 218.28L223.20 218.28L224.06 213.10L223.20 88.97Q223.20 64.49 223.20 63.05L223.20 63.05Q221.76 46.92 213.12 37.99L213.12 37.99Q213.12 31.37 224.93 34.54L224.93 34.54Q236.74 37.99 241.06 44.33L241.06 44.33Q242.21 46.06 242.21 47.79L242.21 47.79Q242.21 48.94 239.90 57.58L239.90 57.58L239.33 60.17Q237.60 75.43 237.02 88.11L237.02 88.11L237.02 152.91L240.77 209.35Q241.63 248.23 230.69 255.72ZM194.40 94.73L194.40 94.73L192.67 149.74Q191.52 169.90 187.49 174.22L187.49 174.22Q184.03 174.22 180.58 168.17L180.58 168.17Q180.00 167.31 179.71 167.02L179.71 167.02Q178.27 158.67 180.58 133.90L180.58 133.90Q182.88 107.11 176.26 91.85L176.26 91.85Q176.26 88.68 177.98 87.24L177.98 87.24Q188.93 88.39 194.40 94.73ZM95.62 79.18L95.62 79.18Q69.12 107.98 59.62 120.07L59.62 120.07Q54.72 119.21 51.26 112.59L51.26 112.59Q50.40 110.57 50.40 108.84L50.40 108.84Q50.11 107.11 52.99 101.07L52.99 101.07L53.57 99.34Q57.02 87.24 52.99 69.96L52.99 69.96Q50.40 59.59 45.79 54.12L45.79 54.12Q45.50 46.92 59.33 55.85L59.33 55.85Q60.19 56.43 60.48 56.71L60.48 56.71L76.32 37.42Q80.64 31.37 81.79 27.63L81.79 27.63L82.66 22.15Q82.94 21.58 83.81 21.29L83.81 21.29Q88.99 19.56 99.07 29.07L99.07 29.07Q100.80 30.51 101.95 31.95L101.95 31.95Q101.66 35.40 95.04 38.28L95.04 38.28Q92.74 39.43 91.58 40.01L91.58 40.01L62.21 61.03Q61.34 71.69 62.50 85.23L62.50 85.23L63.65 93.87L65.09 95.31Q71.42 92.14 88.13 79.75L88.13 79.75Q91.01 77.45 93.02 76.01L93.02 76.01Q93.02 74.57 89.57 67.95L89.57 67.95Q86.98 62.76 89.57 60.17L89.57 60.17L101.09 67.95Q104.83 71.11 105.70 74.28L105.70 74.28Q106.27 75.72 106.27 77.45L106.27 77.45Q106.27 86.95 98.78 81.77L98.78 81.77Q97.34 80.91 95.62 79.18ZM155.81 137.93L155.52 137.93Q132.48 124.39 111.46 114.60L111.46 114.60L77.47 149.74Q46.94 179.40 22.75 179.40L22.75 179.40Q56.45 154.06 62.21 149.16L62.21 149.16Q89.86 125.83 97.92 106.83L97.92 106.83L100.51 99.91L100.80 99.63Q111.17 100.20 116.93 105.67L116.93 105.67L115.49 109.99Q149.47 117.48 155.52 123.24L155.52 123.24Q159.55 127.27 160.70 133.61L160.70 133.61L160.42 137.07Q159.84 138.22 158.40 138.51L158.40 138.51L155.81 137.93ZM152.35 184.87L152.35 184.87Q143.42 189.77 126.14 203.31L126.14 203.31L123.84 203.31L123.84 201.00Q132.77 187.75 134.21 184.01L134.21 184.01Q135.94 179.11 135.94 174.22L135.94 174.22Q141.12 172.78 147.74 177.39L147.74 177.39Q152.93 180.84 152.35 184.87ZM154.94 202.44L157.54 202.73Q157.54 207.34 149.18 210.79L149.18 210.79Q139.39 215.40 125.28 220.30L125.28 220.30Q86.40 234.70 67.10 245.64L67.10 245.64Q61.06 244.78 51.55 237.29L51.55 237.29Q50.11 236.43 49.54 235.56L49.54 235.56Q47.81 233.83 48.10 231.24L48.10 231.24Q48.10 230.67 48.10 229.80L48.10 229.80Q50.11 226.92 57.02 227.79L57.02 227.79Q58.18 228.07 59.04 228.07L59.04 228.07Q65.09 228.07 94.75 219.72L94.75 219.72Q99.07 218.57 101.95 217.71L101.95 217.71L102.24 179.40L81.50 183.72Q72.86 184.59 67.10 181.13L67.10 181.13L66.24 179.11L100.22 170.76L101.38 170.19Q102.53 165.29 99.94 155.50L99.94 155.50Q99.65 154.63 99.65 153.77L99.65 153.77Q86.98 152.62 85.25 152.04L85.25 152.04Q82.66 151.18 80.64 149.45L80.64 149.45Q80.93 147.72 84.67 146.28L84.67 146.28Q88.70 146.28 108.86 139.95L108.86 139.95Q130.46 133.03 137.38 139.66L137.38 139.66Q137.38 142.54 134.50 143.69L134.50 143.69L109.73 150.89Q114.34 153.77 116.06 163.85L116.06 163.85L131.62 159.24Q139.10 158.09 144.00 162.99L144.00 162.99Q144.00 167.59 123.55 173.07L123.55 173.07Q116.93 174.79 115.20 175.66L115.20 175.66L112.90 213.96Q122.69 212.23 153.22 202.73L153.22 202.73Q154.08 202.73 154.94 202.44L154.94 202.44ZM87.55 203.88L87.55 203.88L87.84 212.23L86.69 214.83L85.54 215.40Q79.49 214.25 71.71 205.03L71.71 205.03Q66.53 198.99 63.65 196.97L63.65 196.97L63.94 192.07Q80.64 196.39 85.82 201.87L85.82 201.87Q86.69 202.73 87.55 203.88Z" stroke="#000" fill="black" /></svg>