<svg width="288" height="288" version="1.1" xmlns="http://www.w3.org/2000/svg" xmlns:xlink="http://www.w3.org/1999/xlink"><path d="M236.16 108.71L236.16 108.71Q236.16 112.45 230.40 118.79L230.40 118.79L227.23 122.82L217.44 143.84L212.54 150.47L209.66 153.35Q205.92 153.35 200.16 146.15L200.16 146.15Q199.01 144.71 198.43 143.84L198.43 143.84Q158.98 147.30 122.11 154.21L122.11 154.21Q121.25 160.26 119.52 160.83L119.52 160.83Q113.47 159.11 107.71 138.37L107.71 138.37Q105.98 131.75 105.12 129.73L105.12 129.73L98.78 117.06Q97.92 114.47 97.63 112.16L97.63 112.16L98.50 111.30Q108.58 115.33 127.30 110.43L127.30 110.43Q139.39 107.27 144.29 106.98L144.29 106.98L145.44 105.25L150.05 83.65L150.05 83.36Q141.70 84.51 134.50 82.79L134.50 82.79Q129.02 81.63 124.70 79.04L124.70 79.04L124.42 77.03Q125.28 76.74 144.00 72.99L144.00 72.99Q152.35 71.27 153.50 69.54L153.50 69.54Q154.94 67.52 157.82 41.60L157.82 41.60Q158.11 39.30 158.11 38.72L158.11 38.72Q158.11 31.81 154.66 24.61L154.66 24.61Q155.52 14.82 172.22 28.07L172.22 28.07Q177.12 31.81 179.14 34.11L179.14 34.11Q178.27 39.59 171.07 56.29L171.07 56.29L167.33 66.37Q170.50 66.08 185.47 61.19L185.47 61.19Q201.60 55.71 209.66 64.07L209.66 64.07Q209.66 67.23 207.07 67.81L207.07 67.81L164.45 79.33Q161.86 83.65 157.82 100.07L157.82 100.07L156.67 104.10Q163.30 104.67 212.83 92.87L212.83 92.87Q221.18 94.02 232.99 105.54L232.99 105.54Q235.30 107.84 236.16 108.71ZM211.10 108.99L211.10 108.99L209.66 106.98Q201.60 103.23 185.76 106.69L185.76 106.69L182.02 107.55Q188.06 111.59 188.06 115.04L188.06 115.04Q185.47 118.50 174.24 137.22L174.24 137.22Q189.79 133.76 192.10 133.76L192.10 133.76Q197.86 133.47 200.45 135.78L200.45 135.78Q206.78 133.76 211.10 108.99ZM169.34 109.86L169.34 109.86L145.44 114.75Q151.49 125.41 151.49 142.11L151.49 142.11L167.04 138.66Q169.34 121.67 169.34 109.86ZM121.25 147.01L143.71 143.55Q139.97 137.51 138.53 122.24L138.53 122.24Q138.24 118.79 137.95 116.48L137.95 116.48L116.93 121.95L121.25 147.01ZM257.76 213.83L257.76 213.83Q256.61 214.69 250.56 214.11L250.56 214.11Q247.97 212.10 224.06 197.41L224.06 197.41Q214.27 191.36 207.94 185.89L207.94 185.89Q208.51 181.28 210.24 180.71L210.24 180.71Q210.82 180.42 220.03 181.86L220.03 181.86Q241.92 185.03 251.42 192.51L251.42 192.51Q254.02 194.53 256.03 196.83L256.03 196.83Q259.49 206.05 259.49 207.78L259.49 207.78Q259.49 210.95 257.76 213.83ZM96.19 46.50L98.21 50.53Q98.21 54.56 93.02 58.02L93.02 58.02Q89.57 60.61 88.70 63.20L88.70 63.20Q68.26 86.82 57.89 94.88L57.89 94.88Q47.81 102.95 37.73 106.69L37.73 106.69Q35.42 106.69 35.14 104.96L35.14 104.96L35.42 104.10Q40.03 97.47 56.45 79.04L56.45 79.04Q69.12 64.93 74.30 53.70L74.30 53.70Q77.76 45.92 77.76 45.35L77.76 45.35L77.18 37.57Q77.47 36.42 78.34 35.84L78.34 35.84Q88.99 35.84 96.19 46.50L96.19 46.50ZM205.92 166.88L205.92 166.88Q205.92 169.47 203.62 170.34L203.62 170.34L131.04 182.43L129.02 182.72Q125.28 183.01 122.11 180.42L122.11 180.42L119.81 178.11Q120.38 175.81 180.29 162.85L180.29 162.85Q184.61 161.99 186.62 161.41L186.62 161.41L199.01 161.70Q204.77 165.15 205.92 166.88ZM179.14 201.15L179.14 201.15Q180.58 212.10 179.14 214.98L179.14 214.98Q178.56 216.13 177.41 216.99L177.41 216.99Q171.07 216.99 163.01 206.05L163.01 206.05Q159.26 200.87 157.54 199.14L157.54 199.14Q152.93 193.95 154.94 191.07L154.94 191.07Q155.81 189.63 159.26 190.50L159.26 190.50Q172.51 193.09 179.14 201.15ZM239.04 242.63L239.04 244.64Q219.74 259.04 188.35 258.75L188.35 258.75Q162.14 258.75 146.02 247.52L146.02 247.52Q135.65 240.32 127.01 219.59L127.01 219.59Q121.54 206.34 119.52 202.59L119.52 202.59L119.81 199.43Q127.30 199.43 133.92 212.67L133.92 212.67Q140.83 226.79 143.14 229.38L143.14 229.38Q154.94 242.63 182.88 243.49L182.88 243.49Q188.35 243.78 192.96 243.49L192.96 243.49Q204.77 242.63 207.07 236.58L207.07 236.58Q206.50 229.67 202.18 210.66L202.18 210.66L203.62 210.66L239.04 242.63ZM89.86 241.47L89.86 241.47Q86.40 241.47 84.96 238.02L84.96 238.02Q81.50 229.09 89.28 217.28L89.28 217.28Q94.75 208.64 95.90 205.76L95.90 205.76Q100.22 195.68 102.53 195.68Q104.83 195.68 105.98 199.43L105.98 199.43Q106.27 200.87 106.27 208.07L106.27 208.07Q106.27 233.70 89.86 241.47ZM90.14 111.30L90.14 111.30L59.90 149.89L68.26 157.95Q70.85 161.12 70.85 164.00L70.85 164.00Q70.85 164.58 68.54 179.84L68.54 179.84L68.26 182.43L65.66 239.75Q65.09 250.98 59.62 255.59L59.62 255.59Q50.98 255.59 49.54 239.75L49.54 239.75Q48.38 228.51 51.26 222.75L51.26 222.75L55.87 188.19Q57.02 170.91 52.42 159.11L52.42 159.11Q32.83 180.13 26.50 185.89L26.50 185.89Q17.57 193.38 9.22 197.41L9.22 197.41L5.47 197.41L5.47 194.53Q43.78 155.07 59.90 127.43L59.90 127.43Q65.38 118.21 69.70 108.71L69.70 108.71L67.97 98.34Q68.26 94.88 70.56 93.73L70.56 93.73Q81.79 96.03 87.84 104.96L87.84 104.96Q89.57 108.13 90.14 111.30Z" stroke="#000" fill="black" /></svg>