<svg width="288" height="288" version="1.1" xmlns="http://www.w3.org/2000/svg" xmlns:xlink="http://www.w3.org/1999/xlink"><path d="M176.54 44.06L176.54 44.06Q176.54 52.99 173.38 55.01L173.38 55.01Q164.16 55.01 153.22 44.06L153.22 44.06Q147.46 38.59 145.44 36.86L145.44 36.86L144.58 31.68L147.74 30.24Q171.36 30.24 176.54 44.06ZM227.52 62.50L227.52 62.50Q227.52 65.09 224.06 66.24L224.06 66.24Q223.49 66.53 210.53 67.68L210.53 67.68Q209.09 67.97 208.22 67.97L208.22 67.97Q189.79 70.27 177.41 72.86L177.41 72.86Q181.44 74.88 184.61 80.93L184.61 80.93Q184.32 83.81 178.27 88.70L178.27 88.70Q175.97 90.72 174.82 92.16L174.82 92.16L171.65 95.62Q188.64 99.36 194.11 105.70L194.11 105.70L196.42 109.15Q196.42 114.05 194.98 115.78L194.98 115.78L164.16 106.27L160.70 105.41Q141.70 120.67 121.54 126.72L121.54 126.72L117.22 126.14L143.42 108.00Q147.17 104.83 150.34 101.95L150.34 101.95L130.46 94.46L129.89 94.18L129.89 92.45L157.54 94.18Q166.75 82.37 168.48 74.59L168.48 74.59Q165.02 74.02 101.66 86.11L101.66 86.11Q91.01 83.81 88.42 77.18L88.42 77.18L90.43 75.74Q143.42 67.68 181.44 60.77L181.44 60.77L204.77 55.01Q220.32 52.70 227.52 62.50ZM201.89 176.26L201.89 176.26L201.31 180.58L171.36 207.07Q137.66 234.72 115.78 233.28L115.78 233.28L151.78 205.34Q175.68 185.18 180.58 168.77L180.58 168.77Q182.88 166.75 190.66 169.06L190.66 169.06L199.01 173.09Q201.02 174.53 201.89 176.26ZM239.04 119.81L239.04 119.81Q237.89 127.30 189.50 133.92L189.50 133.92Q178.56 135.36 175.97 135.94L175.97 135.94Q185.47 138.82 188.06 142.85L188.06 142.85Q188.06 146.59 182.30 151.78L182.30 151.78Q181.15 152.64 180.58 153.22L180.58 153.22Q155.23 176.26 142.27 184.03L142.27 184.03Q124.70 194.40 110.88 193.54L110.88 193.54L141.70 170.50Q165.31 150.91 168.19 137.09L168.19 137.09Q164.45 137.09 134.50 140.83L134.50 140.83Q116.06 143.14 103.97 141.41L103.97 141.41Q100.51 150.62 96.77 176.54L96.77 176.54Q96.19 179.42 95.90 181.73L95.90 181.73Q83.81 248.54 39.74 268.99L39.74 268.99L34.56 271.30L25.92 271.30L26.78 268.70Q57.89 247.39 71.14 216.00L71.14 216.00Q74.88 207.36 76.90 198.72L76.90 198.72Q84.38 164.45 83.81 149.76L83.81 149.76Q83.52 136.22 78.62 127.01L78.62 127.01Q78.62 123.84 81.22 122.98L81.22 122.98Q86.69 123.26 98.50 130.46L98.50 130.46Q101.09 131.90 102.53 132.77L102.53 132.77Q138.53 130.75 181.44 121.54L181.44 121.54L211.97 113.47Q215.14 113.18 217.73 112.90L217.73 112.90Q224.93 112.03 230.98 114.05L230.98 114.05Q236.45 116.06 239.04 119.81ZM215.71 220.61L215.71 220.61Q133.63 291.74 104.26 283.39L104.26 283.39L104.26 282.53Q174.82 246.24 189.79 215.71L189.79 215.71Q193.25 208.22 193.82 201.02L193.82 201.02Q196.99 196.99 205.63 203.04L205.63 203.04Q216.00 210.53 215.71 220.61Z" stroke="#000" fill="black" /></svg>